/* XPM */
static char * coin_xpm[] = {
"50 45 282 2",
"  	c #2F8136",
". 	c #2F8236",
"+ 	c #2E7F35",
"@ 	c #29732F",
"# 	c #236428",
"$ 	c #226227",
"% 	c #28712E",
"& 	c #2D7C33",
"* 	c #2F8036",
"= 	c #2D7C34",
"- 	c #28532B",
"; 	c #354535",
"> 	c #1F2E1F",
", 	c #030501",
"' 	c #020000",
") 	c #1E2C1E",
"! 	c #414D42",
"~ 	c #326235",
"{ 	c #29722F",
"] 	c #2F8035",
"^ 	c #27742E",
"/ 	c #2F5D31",
"( 	c #828382",
"_ 	c #C3C3C3",
": 	c #F0F0F0",
"< 	c #9D9D9D",
"[ 	c #000000",
"} 	c #010000",
"| 	c #6D6D6D",
"1 	c #F8F8F8",
"2 	c #D5D5D5",
"3 	c #939293",
"4 	c #405D41",
"5 	c #216E28",
"6 	c #25682A",
"7 	c #5F665F",
"8 	c #F6F6F6",
"9 	c #FFFFFF",
"0 	c #040202",
"a 	c #0B0909",
"b 	c #090707",
"c 	c #C9C9C9",
"d 	c #FBFBFB",
"e 	c #E5E5E5",
"f 	c #8A8B8A",
"g 	c #245B28",
"h 	c #346537",
"i 	c #989797",
"j 	c #F7F7F7",
"k 	c #FEFEFE",
"l 	c #CACACA",
"m 	c #C6C6C6",
"n 	c #CECECE",
"o 	c #C2C2C2",
"p 	c #B5B5B5",
"q 	c #B6B6B6",
"r 	c #FAFAFA",
"s 	c #B2B2B2",
"t 	c #455945",
"u 	c #2B7A32",
"v 	c #2E8035",
"w 	c #1C5721",
"x 	c #BCBCBC",
"y 	c #EFEFEF",
"z 	c #CCCCCC",
"A 	c #E9E9E9",
"B 	c #D0D0D0",
"C 	c #D3D3D3",
"D 	c #4E604F",
"E 	c #2C6130",
"F 	c #BBBABA",
"G 	c #FDFDFD",
"H 	c #F9F9F9",
"I 	c #A3A3A3",
"J 	c #E1E1E1",
"K 	c #D2D2D2",
"L 	c #3E533F",
"M 	c #2C7B32",
"N 	c #2B7832",
"O 	c #1C5320",
"P 	c #3F3D3E",
"Q 	c #CFCFCF",
"R 	c #FCFCFC",
"S 	c #E0E0E0",
"T 	c #F1F1F1",
"U 	c #CBCBCB",
"V 	c #D8D8D8",
"W 	c #A5A4A4",
"X 	c #043D09",
"Y 	c #2C7B33",
"Z 	c #343434",
"` 	c #A8A8A8",
" .	c #B9B9B9",
"..	c #DBDBDB",
"+.	c #C1C1C1",
"@.	c #F2F2F2",
"#.	c #DDDDDD",
"$.	c #BBBBBB",
"%.	c #ADADAD",
"&.	c #CDCDCD",
"*.	c #EDEDED",
"=.	c #AFAFAF",
"-.	c #353535",
";.	c #144117",
">.	c #297430",
",.	c #666666",
"'.	c #DFDFDF",
").	c #B8B8B8",
"!.	c #E3E3E3",
"~.	c #C6C5C5",
"{.	c #ECECEC",
"].	c #5A5A5A",
"^.	c #071C07",
"/.	c #266C2C",
"(.	c #123B15",
"_.	c #A4A3A3",
":.	c #EBEBEB",
"<.	c #C5C5C5",
"[.	c #F3F3F3",
"}.	c #C8C8C8",
"|.	c #194D1D",
"1.	c #29742F",
"2.	c #082108",
"3.	c #D6D5D5",
"4.	c #D6D6D6",
"5.	c #D7D7D7",
"6.	c #2A7631",
"7.	c #276D2C",
"8.	c #061805",
"9.	c #5C5C5C",
"0.	c #8E8E8E",
"a.	c #565555",
"b.	c #1B5320",
"c.	c #A9A9A9",
"d.	c #B1B1B1",
"e.	c #686767",
"f.	c #ABABAB",
"g.	c #0E3010",
"h.	c #308237",
"i.	c #226127",
"j.	c #242424",
"k.	c #464646",
"l.	c #454444",
"m.	c #282828",
"n.	c #1F6124",
"o.	c #595959",
"p.	c #6C6C6C",
"q.	c #7C7C7C",
"r.	c #E2E2E2",
"s.	c #EAEAEA",
"t.	c #7E7E7E",
"u.	c #5F5F5F",
"v.	c #173418",
"w.	c #005B0C",
"x.	c #DCDCDC",
"y.	c #D9D9D9",
"z.	c #828282",
"A.	c #969696",
"B.	c #BFBFBF",
"C.	c #F4F4F4",
"D.	c #E7E7E7",
"E.	c #334433",
"F.	c #505050",
"G.	c #E6E6E6",
"H.	c #334534",
"I.	c #065C12",
"J.	c #CECDCD",
"K.	c #D1D1D1",
"L.	c #DADADA",
"M.	c #C3C2C2",
"N.	c #5B5B5B",
"O.	c #3A3A3A",
"P.	c #BEBEBE",
"Q.	c #304230",
"R.	c #115E1A",
"S.	c #C4C4C4",
"T.	c #E8E8E8",
"U.	c #F5F5F5",
"V.	c #838383",
"W.	c #0D0B0B",
"X.	c #0A0808",
"Y.	c #575656",
"Z.	c #B3B3B3",
"`.	c #315533",
" +	c #23722A",
".+	c #909491",
"++	c #D4D4D4",
"@+	c #323232",
"#+	c #262626",
"$+	c #989898",
"%+	c #EEEEEE",
"&+	c #B8B7B8",
"*+	c #2A642E",
"=+	c #2B7932",
"-+	c #454E45",
";+	c #515151",
">+	c #030101",
",+	c #2A2A2A",
"'+	c #929192",
")+	c #2C7832",
"!+	c #2B4A2D",
"~+	c #767676",
"{+	c #5C6A5D",
"]+	c #2C7732",
"^+	c #969596",
"/+	c #BDBDBD",
"(+	c #C7C6C6",
"_+	c #135C1A",
":+	c #456547",
"<+	c #AAAAAA",
"[+	c #B7B7B7",
"}+	c #555D55",
"|+	c #2A7831",
"1+	c #216F28",
"2+	c #8A8C8A",
"3+	c #939393",
"4+	c #5D5D5D",
"5+	c #696969",
"6+	c #908F8F",
"7+	c #246129",
"8+	c #255928",
"9+	c #434242",
"0+	c #100F0F",
"a+	c #292929",
"b+	c #A2A2A2",
"c+	c #888787",
"d+	c #ACACAC",
"e+	c #3E3E3E",
"f+	c #304B32",
"g+	c #2D7B33",
"h+	c #113913",
"i+	c #6F6E6E",
"j+	c #8D8D8D",
"k+	c #051604",
"l+	c #276D2D",
"m+	c #276C2B",
"n+	c #030000",
"o+	c #3E3D3D",
"p+	c #B0B0B0",
"q+	c #BABBBB",
"r+	c #041003",
"s+	c #438D32",
"t+	c #30631E",
"u+	c #070505",
"v+	c #071D07",
"w+	c #256A2B",
"x+	c #388635",
"y+	c #489030",
"z+	c #266A2B",
"A+	c #0A250A",
"B+	c #474646",
"C+	c #212121",
"D+	c #020100",
"E+	c #28702E",
"F+	c #31762D",
"G+	c #164218",
"H+	c #09240A",
"I+	c #959595",
"J+	c #0C2A0D",
"K+	c #194C1D",
"L+	c #194D1E",
"M+	c #516852",
"N+	c #888988",
"O+	c #304F31",
"P+	c #1F5C24",
"Q+	c #328235",
"R+	c #479031",
"S+	c #358133",
"T+	c #28642C",
"U+	c #304C2C",
"V+	c #304431",
"W+	c #354836",
"X+	c #394B3A",
"Y+	c #364836",
"Z+	c #334633",
"`+	c #2C402C",
" @	c #2B6430",
".@	c #2A7430",
"+@	c #368535",
"@@	c #3C8934",
"#@	c #3B8935",
"$@	c #2F8237",
"                                                                                                    ",
"                                                                                                    ",
"                                                                                                    ",
"                                                                                                    ",
"                                                                                                    ",
"                                    . + @ # $ $ $ $ $ $ % & .                                       ",
"                                * = - ; > , ' ' ' ' ' ' ) ! ~ { ]                                   ",
"                            . ^ / ( _ : < [ ' ' ' ' ' } | 1 2 3 4 5 ]                               ",
"                          + 6 7 2 8 9 9 _ 0 a a a a b [ c 9 9 d e f g                               ",
"                        + h i j 9 9 9 k l m n n n n o p q r 9 9 9 d s t u                           ",
"                      v w x r 9 9 9 9 y z 9 9 9 9 9 9 9 A B k 9 9 9 9 C D &                         ",
"                    + E F G 9 9 9 9 H I 9 9 9 9 9 9 9 9 9 n J 9 9 9 9 9 K L M                       ",
"                  N O P Q 9 9 9 R S p T 9 9 9 9 9 9 9 9 9 9 U V G 9 9 9 9 W X Y                     ",
"                  # ' } Z ` V q  ...+.@.9 9 9 9 9 9 9 9 9 9 #.$.$.%.&.*.=.-.[ ;.                    ",
"                >.[ ' ' ' ,.'.9 9 9 H ).k 9 9 9 9 9 9 9 9 !.~.9 9 9 {.C ].' ' ^./.                  ",
"              . (.' ' ' ' _.9 9 9 9 9 :.<.9 9 9 9 9 9 9 [.}.R 9 9 9 9 9 < ' ' ' |.v                 ",
"              1.2.' ' ' ' ..9 9 9 9 9 k &.&.2 2 3.3.3.4.x @.9 9 9 9 9 9 5.[ ' ' [ 6.                ",
"              7.8.' ' [ 9.G 9 9 9 9 9 9 }.[ [ [ [ [ [ [ 0.9 9 9 9 9 9 9 R a.[ ' ' b..               ",
"              $ ' ' ' [ c.9 9 9 9 9 9 G d.[ ' ' ' ' ' ' e.G 9 9 9 9 9 9 9 f.[ ' ' g.h.              ",
"              i.' ' ' j.S 9 9 9 9 9 9 j k.} ' ' ' ' ' ' l.J 9 9 9 9 9 9 9 S m.' ' g.h.              ",
"              n.o.p.p.q.{.9 9 9 9 9 9 r.[ ' ' ' ' ' ' ' [ o 9 9 9 9 9 9 9 s.t.p.u.v.h.              ",
"              w.x.9 9 *.y.9 9 9 9 9 9 z.[ ' ' ' ' ' ' ' [ A.R 9 9 9 9 9 9 B.C.9 D.E.h.              ",
"              w.#.9 9 k p G 9 9 9 k [.F.' ' ' ' ' ' ' ' ' [ T 9 9 9 9 9 B.:.9 9 G.H.h.              ",
"              I.J.9 9 9 D.K.9 1 L.5.M.N.[ ' ' ' ' ' ' ' [ O.P.V s.9 9 J y.9 9 9 '.Q.h.              ",
"              R.q 9 9 9 k q s S.T.U.R *.V.W.' ' ' ' ' X.Y...j C.K.Z.Q x R 9 9 9 5.`..               ",
"               +.+9 9 9 9 ++T.9 9 9 9 9 j c.@+[ ' } #+$+C.9 9 9 9 9 =.%+9 9 9 9 &+*+.               ",
"              =+-+H 9 9 9 4.A 9 9 9 9 9 9 k 2 ;+>+,+&.d 9 9 9 9 9 9 x y 9 9 9 d '+)+                ",
"              . !+Q 9 9 9 V D.9 9 9 9 9 9 9 9 :.~+%+9 9 9 9 9 9 9 9 x y 9 9 9 : {++                 ",
"                ]+^+d 9 9 y.G.9 9 9 9 9 9 9 9 k d.9 9 9 9 9 9 9 9 9 /+y 9 9 9 (+_+                  ",
"                ] :+G.9 1 /+..9 9 9 9 9 9 9 9 k <+9 9 9 9 9 9 9 9 *.t.[+1 9 H }+|+                  ",
"                  1+2+s.3+[ 4+}.R 9 9 9 9 9 9 k I 9 9 9 9 9 9 9 B 5+[ [ 6+!.%.7+.                   ",
"                    8+9+0+' ' a+b+8 9 9 9 9 R j c+*.r k 9 9 j d+-.} ' ' 0 e+f++                     ",
"                    g+h+' ' ' ' [ i+x.9 8 C K.&.:.K K.K.s.G.j+[ } ' ' ' ' k+l+                      ",
"                      m+n+' ' ' ' ' o+p+q+*.H 9 9 9 R [.U ,.0 ' ' ' ' ' r+% ]                       ",
"                      s+t+} ' ' ' ' [ r.9 9 9 9 9 9 9 9 k f.u+' ' ' ' v+w+                          ",
"                      x+y+z+A+' ' ' B+8 9 9 9 9 9 9 9 9 9 <.C+' ' D+r+E+*                           ",
"                            F+G+H+} I+U.9 9 9 9 9 9 9 9 9 U.B+} J+K+6.                              ",
"                              . % L+M+N+=.2 G.C.9 8 %+..x '+O+P+6.*                                 ",
"                                  Q+R+S+T+U+V+W+X+Y+Z+`+ @.@v *                                     ",
"                                    +@@@  #@$@h.h.h.h.h..                                           ",
"                                                                                                    ",
"                                                                                                    ",
"                                                                                                    ",
"                                                                                                    ",
"                                                                                                    "};
