/* XPM */
static char * player_xpm[] = {
"50 45 679 2",
"  	c #2F8136",
". 	c #2D7D34",
"+ 	c #2B7731",
"@ 	c #276E2D",
"# 	c #2F672D",
"$ 	c #51693E",
"% 	c #717251",
"& 	c #8B7C62",
"* 	c #9C846C",
"= 	c #A28771",
"- 	c #A58872",
"; 	c #A48872",
"> 	c #2E7E35",
", 	c #2D7732",
"' 	c #286B2C",
") 	c #2D5D2A",
"! 	c #475935",
"~ 	c #70694F",
"{ 	c #978269",
"] 	c #B6997F",
"^ 	c #CAA88D",
"/ 	c #D3AF93",
"( 	c #D5B095",
"_ 	c #D4B094",
": 	c #D4AF94",
"< 	c #2E8035",
"[ 	c #307131",
"} 	c #3F6F37",
"| 	c #506A3D",
"1 	c #656848",
"2 	c #7E6F57",
"3 	c #9A806B",
"4 	c #B7977F",
"5 	c #CFAB90",
"6 	c #E0BA9D",
"7 	c #E8C0A2",
"8 	c #EAC2A4",
"9 	c #E9C1A3",
"0 	c #2A732F",
"a 	c #33592C",
"b 	c #586540",
"c 	c #7B7557",
"d 	c #9A856C",
"e 	c #B1947C",
"f 	c #C3A188",
"g 	c #D1AD92",
"h 	c #DEB89B",
"i 	c #E7BFA2",
"j 	c #EBC3A5",
"k 	c #ECC4A5",
"l 	c #1E5622",
"m 	c #363C25",
"n 	c #685C48",
"o 	c #967F68",
"p 	c #B99A81",
"q 	c #D2AF93",
"r 	c #E0B99C",
"s 	c #E5BEA0",
"t 	c #E8C0A3",
"u 	c #102D10",
"v 	c #372C23",
"w 	c #6D594B",
"x 	c #9E826D",
"y 	c #C4A288",
"z 	c #DDB79A",
"A 	c #E8C1A3",
"B 	c #080604",
"C 	c #6D5A4A",
"D 	c #C4A289",
"E 	c #EDC4A6",
"F 	c #ECC3A5",
"G 	c #6D594A",
"H 	c #9D826D",
"I 	c #C3A288",
"J 	c #DCB69A",
"K 	c #EAC2A3",
"L 	c #ECC4A6",
"M 	c #EAC1A3",
"N 	c #EAC1A2",
"O 	c #EAC0A1",
"P 	c #EAC3A5",
"Q 	c #EAC3A7",
"R 	c #EBC4A8",
"S 	c #EBC5A8",
"T 	c #EBC5A9",
"U 	c #EBC3A7",
"V 	c #EBC4A7",
"W 	c #ECC7AC",
"X 	c #EDCBB3",
"Y 	c #EED0BB",
"Z 	c #F0D4C0",
"` 	c #F0D5C3",
" .	c #F1D5C3",
"..	c #F1D6C3",
"+.	c #F0D4C2",
"@.	c #EFD2BE",
"#.	c #EECEB8",
"$.	c #ECCAB0",
"%.	c #EBC7AB",
"&.	c #ECC3A4",
"*.	c #EBC3A4",
"=.	c #EBC6AA",
"-.	c #EDCDB6",
";.	c #F1D7C6",
">.	c #F4E1D4",
",.	c #F7E7DE",
"'.	c #F8EBE3",
").	c #F8ECE4",
"!.	c #F8ECE3",
"~.	c #F8EAE2",
"{.	c #F6E5DB",
"].	c #F3DDCE",
"^.	c #EFD3BF",
"/.	c #ECCBB3",
"(.	c #E8BFA2",
"_.	c #ECC2A3",
":.	c #EBC7AD",
"<.	c #F4E0D4",
"[.	c #F8EDE6",
"}.	c #FBF5F2",
"|.	c #FAF7F6",
"1.	c #F8F5F4",
"2.	c #F6F3F1",
"3.	c #F5F2F0",
"4.	c #F7F4F2",
"5.	c #F9F6F5",
"6.	c #FBF7F5",
"7.	c #FAF3EE",
"8.	c #F6E8DE",
"9.	c #F2DACA",
"0.	c #EECFBA",
"a.	c #ECC8AE",
"b.	c #F0D4C1",
"c.	c #F6E4D9",
"d.	c #FAF1EC",
"e.	c #FAF7F5",
"f.	c #F4F3F3",
"g.	c #E9E9E9",
"h.	c #E0DEDD",
"i.	c #DDDBD9",
"j.	c #E3E1E1",
"k.	c #EDEDED",
"l.	c #F7F5F5",
"m.	c #FAF6F3",
"n.	c #F3DDCF",
"o.	c #EFD1BD",
"p.	c #F6E5D9",
"q.	c #F9F1EB",
"r.	c #E8E6E5",
"s.	c #D3CFCD",
"t.	c #BDB7B3",
"u.	c #B6AFAB",
"v.	c #C5C0BD",
"w.	c #DBD9D8",
"x.	c #EFECEC",
"y.	c #F9F4F0",
"z.	c #F9ECE4",
"A.	c #F4DDCF",
"B.	c #ECC8AD",
"C.	c #F7E5DA",
"D.	c #F9F0EB",
"E.	c #F4F0ED",
"F.	c #E0DEDC",
"G.	c #C2BDB9",
"H.	c #A29891",
"I.	c #978A82",
"J.	c #AEA5A0",
"K.	c #CFCBC8",
"L.	c #EAE7E5",
"M.	c #F7F2EE",
"N.	c #F4DECF",
"O.	c #F3EFED",
"P.	c #DEDBDA",
"Q.	c #BDB7B4",
"R.	c #9A8D86",
"S.	c #8E7D73",
"T.	c #A79D97",
"U.	c #CBC7C4",
"V.	c #E8E6E3",
"W.	c #F4F0EE",
"X.	c #E1DEDD",
"Y.	c #C4BFBC",
"Z.	c #A59B95",
"`.	c #9B8E86",
" +	c #B0A8A3",
".+	c #D0CCCA",
"++	c #EAE8E6",
"@+	c #DDB79B",
"#+	c #E9C1A2",
"$+	c #ECC3A3",
"%+	c #F9F1EC",
"&+	c #F6F3F2",
"*+	c #EAE8E7",
"=+	c #D6D3D2",
"-+	c #C3BEBB",
";+	c #BDB6B3",
">+	c #CAC5C3",
",+	c #DEDCDB",
"'+	c #F0EFED",
")+	c #F9F4F1",
"!+	c #372D23",
"~+	c #F5E4D8",
"{+	c #FAF1EB",
"]+	c #F5F4F4",
"^+	c #ECECEC",
"/+	c #E5E3E2",
"(+	c #E3E0DF",
"_+	c #E7E6E5",
":+	c #F0EFEF",
"<+	c #F8F7F5",
"[+	c #F3DCCE",
"}+	c #080904",
"|+	c #353D26",
"1+	c #675D47",
"2+	c #947E67",
"3+	c #B89A80",
"4+	c #DEB79A",
"5+	c #E4BC9E",
"6+	c #E7C0A2",
"7+	c #EAC6AB",
"8+	c #EFD2BD",
"9+	c #F4E0D2",
"0+	c #FBF4F0",
"a+	c #FBF7F4",
"b+	c #F9F5F3",
"c+	c #F8F3F1",
"d+	c #F7F3F0",
"e+	c #F8F4F2",
"f+	c #FAF6F4",
"g+	c #FBF6F3",
"h+	c #F6E6DD",
"i+	c #F1D9C9",
"j+	c #EECFB9",
"k+	c #113011",
"l+	c #335B2B",
"m+	c #576640",
"n+	c #797456",
"o+	c #978469",
"p+	c #AF927A",
"q+	c #C19F86",
"r+	c #D0AC90",
"s+	c #E8C2A7",
"t+	c #EFCDB5",
"u+	c #F3D7C5",
"v+	c #F5E0D2",
"w+	c #F7E6DA",
"x+	c #F8E8DF",
"y+	c #F8E9E0",
"z+	c #F8E9DF",
"A+	c #F7E9E0",
"B+	c #F7E7DD",
"C+	c #F5E3D7",
"D+	c #F2DBCB",
"E+	c #EDCBB2",
"F+	c #1F5823",
"G+	c #307231",
"H+	c #3E6F36",
"I+	c #4E6A3C",
"J+	c #616747",
"K+	c #7B6D56",
"L+	c #977E69",
"M+	c #B5957D",
"N+	c #CEAA90",
"O+	c #E0BA9E",
"P+	c #E8C4A9",
"Q+	c #ECC9B1",
"R+	c #ECCDB6",
"S+	c #EDCFBA",
"T+	c #EDD0BC",
"U+	c #EED1BD",
"V+	c #EED1BC",
"W+	c #EDCBB4",
"X+	c #EBC8AE",
"Y+	c #2A7430",
"Z+	c #2D7832",
"`+	c #2A6C2D",
" @	c #2C5F2A",
".@	c #465A35",
"+@	c #6E694E",
"@@	c #968169",
"#@	c #B4987E",
"$@	c #C8A68C",
"%@	c #D2AF94",
"&@	c #D2AE94",
"*@	c #D4B095",
"=@	c #D8B398",
"-@	c #E2BB9E",
";@	c #E6BFA1",
">@	c #E6BE9F",
",@	c #2F8035",
"'@	c #2B7832",
")@	c #28702E",
"!@	c #2E682E",
"~@	c #4F6A3D",
"{@	c #6F7250",
"]@	c #897B60",
"^@	c #98816A",
"/@	c #9E826C",
"(@	c #9E816A",
"_@	c #9F8169",
":@	c #A6856D",
"<@	c #B39176",
"[@	c #C39F81",
"}@	c #D1AA8B",
"|@	c #DAB292",
"1@	c #DEB494",
"2@	c #DEB594",
"3@	c #DDB494",
"4@	c #DDB495",
"5@	c #DEB596",
"6@	c #DFB697",
"7@	c #2E7F35",
"8@	c #2C7A33",
"9@	c #2D7431",
"0@	c #366D32",
"a@	c #426334",
"b@	c #4E5838",
"c@	c #57513E",
"d@	c #5E5145",
"e@	c #63564D",
"f@	c #6D5F57",
"g@	c #7E6E63",
"h@	c #968072",
"i@	c #AE9382",
"j@	c #C1A28E",
"k@	c #CEAD96",
"l@	c #D5B29A",
"m@	c #D8B59C",
"n@	c #D9B59C",
"o@	c #D8B59B",
"p@	c #D7B49B",
"q@	c #D5B39B",
"r@	c #D4B19A",
"s@	c #297430",
"t@	c #266B2C",
"u@	c #216026",
"v@	c #1B501F",
"w@	c #163C19",
"x@	c #29372D",
"y@	c #4E5050",
"z@	c #6D6F6F",
"A@	c #878787",
"B@	c #999798",
"C@	c #A4A0A2",
"D@	c #ADA6A8",
"E@	c #B5ABAC",
"F@	c #BFB0B0",
"G@	c #CAB9B5",
"H@	c #D4C1B9",
"I@	c #DBC7BB",
"J@	c #DCC8BB",
"K@	c #D6C3B9",
"L@	c #CCBBB6",
"M@	c #C4B4B3",
"N@	c #2D7933",
"O@	c #296F2E",
"P@	c #256228",
"Q@	c #205321",
"R@	c #154319",
"S@	c #0E3512",
"T@	c #102914",
"U@	c #3E4341",
"V@	c #727373",
"W@	c #9D9E9D",
"X@	c #BBBCBD",
"Y@	c #CACCCF",
"Z@	c #C8CDD5",
"`@	c #BBC4D3",
" #	c #ADBBD0",
".#	c #ACBAD0",
"+#	c #BDC4D4",
"@#	c #D3D3DB",
"##	c #E2DEDF",
"$#	c #E5E0E0",
"%#	c #D9D7DC",
"&#	c #C4C9D6",
"*#	c #B2BDD2",
"=#	c #2E7632",
"-#	c #377134",
";#	c #426936",
">#	c #4C5E37",
",#	c #505136",
"'#	c #49402C",
")#	c #362813",
"!#	c #2F261C",
"~#	c #52504F",
"{#	c #878786",
"]#	c #B7B7B6",
"^#	c #D8D8D9",
"/#	c #E6E9EC",
"(#	c #DDE6F1",
"_#	c #C5D7EC",
":#	c #A9C5E5",
"<#	c #9FC0E2",
"[#	c #B4CCE7",
"}#	c #D2DEEE",
"|#	c #E7EDF4",
"1#	c #EAEFF5",
"2#	c #DAE3F0",
"3#	c #BED1E9",
"4#	c #A4C2E3",
"5#	c #2C7932",
"6#	c #30612C",
"7#	c #4B6539",
"8#	c #696C49",
"9#	c #7F7256",
"0#	c #89735B",
"a#	c #846955",
"b#	c #6D5542",
"c#	c #574537",
"d#	c #5E5956",
"e#	c #8D8C8B",
"f#	c #BDBDBC",
"g#	c #DFDFE0",
"h#	c #EDF0F4",
"i#	c #E3ECF8",
"j#	c #C7DBF2",
"k#	c #A7C8EB",
"l#	c #9BC1E8",
"m#	c #B2CEEC",
"n#	c #D2E1F3",
"o#	c #E8F0FA",
"p#	c #ECF3FB",
"q#	c #DAE7F6",
"r#	c #BCD3EE",
"s#	c #9FC4E8",
"t#	c #226127",
"u#	c #304223",
"v#	c #5C583E",
"w#	c #857359",
"x#	c #A2876D",
"y#	c #B19076",
"z#	c #AA8A71",
"A#	c #91745C",
"B#	c #715B4A",
"C#	c #685F5A",
"D#	c #8C8B8A",
"E#	c #BBBBBA",
"F#	c #DEDEDE",
"G#	c #ECEFF3",
"H#	c #E2EBF6",
"I#	c #C7DBF1",
"J#	c #A7C7EA",
"K#	c #9CC1E7",
"L#	c #B2CEEB",
"M#	c #E8F0F9",
"N#	c #ECF2FA",
"O#	c #DAE6F5",
"P#	c #BCD3ED",
"Q#	c #A0C3E8",
"R#	c #143A15",
"S#	c #31291F",
"T#	c #645141",
"U#	c #917660",
"V#	c #B19177",
"W#	c #C19D81",
"X#	c #BB987C",
"Y#	c #A08168",
"Z#	c #7D6552",
"`#	c #6C625C",
" $	c #BABABA",
".$	c #DDDEDE",
"+$	c #EBEEF2",
"@$	c #C7DAF1",
"#$	c #A7C7E9",
"$$	c #B2CEEA",
"%$	c #D2E1F2",
"&$	c #E8EFF9",
"*$	c #EBF2FA",
"=$	c #BDD3ED",
"-$	c #A1C3E8",
";$	c #080F05",
">$	c #31261E",
",$	c #645041",
"'$	c #927661",
")$	c #B39178",
"!$	c #C39F83",
"~$	c #BD9A7E",
"{$	c #A38369",
"]$	c #7E6653",
"^$	c #6C635D",
"/$	c #070403",
"($	c #303521",
"_$	c #60543F",
":$	c #8C755D",
"<$	c #AA8C73",
"[$	c #B9977D",
"}$	c #B39177",
"|$	c #9A7B63",
"1$	c #78604E",
"2$	c #6A615B",
"3$	c #A8C8E9",
"4$	c #B3CEEB",
"5$	c #ECF2F9",
"6$	c #DBE6F5",
"7$	c #A1C3E7",
"8$	c #0E270D",
"9$	c #305528",
"0$	c #54603B",
"a$	c #776F50",
"b$	c #907C61",
"c$	c #9D8169",
"d$	c #967962",
"e$	c #7F644F",
"f$	c #645040",
"g$	c #625C58",
"h$	c #BCBCBC",
"i$	c #C8DCF3",
"j$	c #A9C9EB",
"k$	c #9DC2E8",
"l$	c #B4CFED",
"m$	c #D3E2F4",
"n$	c #EAF1FA",
"o$	c #EDF3FB",
"p$	c #DCE8F6",
"q$	c #BDD5EF",
"r$	c #A2C4E9",
"s$	c #1D5220",
"t$	c #2F6F30",
"u$	c #406D36",
"v$	c #54693E",
"w$	c #646544",
"x$	c #6A5E46",
"y$	c #64513F",
"z$	c #503C2A",
"A$	c #413328",
"B$	c #585452",
"C$	c #8B8A89",
"D$	c #DDDDDD",
"E$	c #EAEEF1",
"F$	c #E1EAF6",
"G$	c #C6DAF0",
"H$	c #9CC0E6",
"I$	c #B2CCEA",
"J$	c #D1E0F1",
"K$	c #E8EEF8",
"L$	c #EBF1F9",
"M$	c #DAE6F4",
"N$	c #A0C3E7",
"O$	c #2E7D34",
"P$	c #2F7632",
"Q$	c #2F6B2F",
"R$	c #305C2A",
"S$	c #2E4B24",
"T$	c #24391A",
"U$	c #17270B",
"V$	c #1A2214",
"W$	c #4A4C49",
"X$	c #807F7E",
"Y$	c #ADACAC",
"Z$	c #CCCCCC",
"`$	c #D9DBDF",
" %	c #CFD8E3",
".%	c #B7C9DE",
"+%	c #9AB7D6",
"@%	c #8FB1D4",
"#%	c #A4BDD8",
"$%	c #C1CEDE",
"%%	c #D6DBE4",
"&%	c #D8DEE5",
"*%	c #C8D3E0",
"=%	c #ADC2D9",
"-%	c #93B3D4",
";%	c #2D7C34",
">%	c #2A7530",
",%	c #266C2C",
"'%	c #1C5421",
")%	c #154519",
"!%	c #143416",
"~%	c #384039",
"{%	c #656464",
"]%	c #8A8988",
"^%	c #A3A3A3",
"/%	c #AEAFB2",
"(%	c #A6ADB5",
"_%	c #92A0B0",
":%	c #7A91AB",
"<%	c #718CA8",
"[%	c #8195AB",
"}%	c #98A3AF",
"|%	c #A8ADB4",
"1%	c #AAAFB4",
"2%	c #9DA6B0",
"3%	c #8798AB",
"4%	c #738DA7",
"5%	c #2C7B33",
"6%	c #256A2B",
"7%	c #1E5923",
"8%	c #16431A",
"9%	c #233323",
"0%	c #3E3E3C",
"a%	c #555453",
"b%	c #666565",
"c%	c #6D6D6E",
"d%	c #686B70",
"e%	c #5A626C",
"f%	c #4A5767",
"g%	c #425364",
"h%	c #4C5965",
"i%	c #5B6469",
"j%	c #656A6D",
"k%	c #666C6C",
"l%	c #5F686A",
"m%	c #515F67",
"n%	c #435864",
"o%	c #515E67",
"p%	c #5E676A",
"q%	c #5A6369",
"r%	c #29732F",
"s%	c #17481B",
"t%	c #112C11",
"u%	c #161914",
"v%	c #221F1E",
"w%	c #292725",
"x%	c #2C2928",
"y%	c #211F1F",
"z%	c #161817",
"A%	c #0D1B12",
"B%	c #0E2914",
"C%	c #173918",
"D%	c #1F461C",
"E%	c #1B4720",
"F%	c #214C1F",
"G%	c #1A4920",
"H%	c #194820",
"I%	c #1B4920",
"J%	c #1C4720",
"K%	c #1A411D",
"L%	c #143719",
"M%	c #226227",
"N%	c #17491B",
"O%	c #0D2C0F",
"P%	c #0E110A",
"Q%	c #15110F",
"R%	c #1B1613",
"S%	c #1C1713",
"T%	c #19130E",
"U%	c #120B06",
"V%	c #070B01",
"W%	c #072209",
"X%	c #123C15",
"Y%	c #1A501F",
"Z%	c #205E26",
"`%	c #246729",
" &	c #25692B",
".&	c #17491C",
"+&	c #102C11",
"@&	c #151813",
"#&	c #201E1C",
"$&	c #272523",
"%&	c #2A2826",
"&&	c #272423",
"*&	c #1F1D1B",
"=&	c #151811",
"-&	c #102D11",
";&	c #215F26",
">&	c #161913",
",&	c #211E1D",
"'&	c #292624",
")&	c #2B2927",
"!&	c #282624",
"~&	c #112F12",
"{&	c #194C1D",
"]&	c #226428",
"^&	c #151913",
"/&	c #282524",
"(&	c #1F1D1C",
"_&	c #112E12",
":&	c #184B1D",
"<&	c #226328",
"[&	c #0F2C10",
"}&	c #131610",
"|&	c #1C1A19",
"1&	c #23211F",
"2&	c #262322",
"3&	c #1C1A18",
"4&	c #121710",
"5&	c #0F2E11",
"6&	c #184B1C",
"  . + @ # $ % & * = - ; ; ; ; ; ; ; ; ; ; ; ; ; ; ; ; ; ; ; ; ; ; ; ; ; ; - = * & % $ # @ + .       ",
"> , ' ) ! ~ { ] ^ / ( ( _ : : : : : : : : : : : : : : : : : : : : : : _ ( ( / ^ ] { ~ ! ) ' , > <   ",
"[ } | 1 2 3 4 5 6 7 8 8 9 9 9 9 9 9 9 9 9 9 9 9 9 9 9 9 9 9 9 9 9 9 9 9 8 8 7 6 5 4 3 2 1 | } [ 0   ",
"a b c d e f g h i j k k k k k k k k k k k k k k k k k k k k k k k k k k k k j i h g f e d c b a l   ",
"m n o p q r s t 9 8 8 8 8 8 8 8 8 8 8 8 8 8 8 8 8 8 8 8 8 8 8 8 8 8 8 8 8 8 8 9 t s r q p o n m u   ",
"v w x y z A k j 8 8 8 8 8 8 8 8 8 8 8 8 8 8 8 8 8 8 8 8 8 8 8 8 8 8 8 8 8 8 8 8 j k A z y x w v B   ",
"v C x D z 9 E F 8 8 8 8 8 8 8 8 8 8 8 8 8 8 8 8 8 8 8 8 8 8 8 8 8 8 8 8 8 8 8 8 F E 9 z D x C v B   ",
"v G H I J t k j 8 8 8 8 8 K K K K K K 8 8 8 8 8 8 8 8 8 8 K K K K K K 8 8 8 8 8 j k t J I H G v B   ",
"v G H I J t L j 8 K M N N O O O O O O N N N M K K M N N N O O O O O O N N M K 8 j L t J I H G v B   ",
"v G H I J t k j 8 P Q R S T T T T T T S S U P P P P U S S T T T T T T S R Q P 8 j k t J I H G v B   ",
"v G H I J t F j V W X Y Z `  ....... .+.@.#.$.%.%.$.#.@.+. ....... .` Z Y X W V j F t J I H G v B   ",
"v G H I J 7 &.*.=.-.;.>.,.'.).).!.).).~.{.].^././.^.].{.~.).).!.).).'.,.>.;.-.=.*.&.7 J I H G v B   ",
"v G H I J (._.j :.@.<.[.}.|.1.2.3.4.5.6.7.8.9.0.0.9.8.7.6.5.4.3.2.1.|.}.[.<.@.:.j _.(.J I H G v B   ",
"v G H I J i _.j a.b.c.d.e.f.g.h.i.j.k.l.m.).n.o.o.n.).m.l.k.j.i.h.g.f.e.d.c.b.a.j _.i J I H G v B   ",
"v G H I J i _.j a.+.p.q.2.r.s.t.u.v.w.x.y.z.A.o.o.A.z.y.x.w.v.u.t.s.r.2.q.p.+.a.j _.i J I H G v B   ",
"v G H I J i _.j B.+.C.D.E.F.G.H.I.J.K.L.M.z.N.o.o.N.z.M.L.K.J.I.H.G.F.E.D.C.+.B.j _.i J I H G v B   ",
"v G H I J i _.j B.+.C.D.O.P.Q.R.S.T.U.V.M.z.N.o.o.N.z.M.V.U.T.S.R.Q.P.O.D.C.+.B.j _.i J I H G v B   ",
"v G H I J 7 _.j B.+.C.D.W.X.Y.Z.`. +.+++M.z.N.o.o.N.z.M.++.+ +`.Z.Y.X.W.D.C.+.B.j _.7 J I H G v B   ",
"v C x D @+#+$+F a.+.p.%+&+*+=+-+;+>+,+'+)+z.A.o.o.A.z.)+'+,+>+;+-+=+*+&+%+p.+.a.F $+#+@+D x C v B   ",
"!+C x I J 7 $+j a.b.~+{+|.]+^+/+(+_+:+<+m.).[+o.o.[+).m.<+:+_+(+/+^+]+|.{+~+b.a.j $+7 J I x C !+}+  ",
"|+1+2+3+g 4+5+6+7+8+9+).0+a+b+c+d+e+f+g+d.h+i+j+j+i+h+d.g+f+e+d+c+b+a+0+).9+8+7+6+5+4+g 3+2+1+|+k+  ",
"l+m+n+o+p+q+r+z s+t+u+v+w+x+y+y+z+y+A+B+C+D+o.E+E+o.D+C+B+A+y+z+y+y+x+w+v+u+t+s+z r+q+p+o+n+m+l+F+  ",
"G+H+I+J+K+L+M+N+O+P+Q+R+S+T+U+@.@.@.@.V+0.W+X+T T X+W+0.V+@.@.@.@.U+T+S+R+Q+P+O+N+M+L+K+J+I+H+G+Y+  ",
"> Z+`+ @.@+@@@#@$@g %@&@*@=@@+-@s ;@;@;@;@s >@>@>@>@s ;@;@;@;@s -@@+=@*@&@%@g $@#@@@+@.@ @`+Z+> ,@  ",
"  . '@)@!@~@{@]@^@/@(@_@:@<@[@}@|@1@2@3@3@4@5@6@6@5@4@3@3@2@1@|@}@[@<@:@_@(@/@^@]@{@~@!@)@'@.       ",
"  7@. 8@9@0@a@b@c@d@e@f@g@h@i@j@k@l@m@n@o@p@q@r@r@q@p@o@n@m@l@k@j@i@h@g@f@e@d@c@b@a@0@9@8@. 7@      ",
"  > 8@s@t@u@v@w@x@y@z@A@B@C@D@E@F@G@H@I@J@K@L@M@M@L@K@J@I@H@G@F@E@D@C@B@A@z@y@x@w@v@u@t@s@8@>       ",
"7@N@O@P@Q@R@S@T@U@V@W@X@Y@Z@`@ #.#+#@###$#%#&#*#*#&#%#$###@#+#.# #`@Z@Y@X@W@V@U@T@S@R@Q@P@O@N@7@    ",
"=#-#;#>#,#'#)#!#~#{#]#^#/#(#_#:#<#[#}#|#1#2#3#4#4#3#2#1#|#}#[#<#:#_#(#/#^#]#{#~#!#)#'#,#>#;#-#=#5#  ",
"6#7#8#9#0#a#b#c#d#e#f#g#h#i#j#k#l#m#n#o#p#q#r#s#s#r#q#p#o#n#m#l#k#j#i#h#g#f#e#d#c#b#a#0#9#8#7#6#t#  ",
"u#v#w#x#y#z#A#B#C#D#E#F#G#H#I#J#K#L#n#M#N#O#P#Q#Q#P#O#N#M#n#L#K#J#I#H#G#F#E#D#C#B#A#z#y#x#w#v#u#R#  ",
"S#T#U#V#W#X#Y#Z#`#D# $.$+$H#@$#$K#$$%$&$*$O#=$-$-$=$O#*$&$%$$$K##$@$H#+$.$ $D#`#Z#Y#X#W#V#U#T#S#;$  ",
">$,$'$)$!$~${$]$^$D# $.$+$H#@$#$K#$$%$&$*$O#=$-$-$=$O#*$&$%$$$K##$@$H#+$.$ $D#^$]${$~$!$)$'$,$>$/$  ",
"($_$:$<$[$}$|$1$2$D# $.$+$H#@$3$K#4$%$&$5$6$=$7$7$=$6$5$&$%$4$K#3$@$H#+$.$ $D#2$1$|$}$[$<$:$_$($8$  ",
"9$0$a$b$c$d$e$f$g$e#h$g#h#i#i$j$k$l$m$n$o$p$q$r$r$q$p$o$n$m$l$k$j$i$i#h#g#h$e#g$f$e$d$c$b$a$0$9$s$  ",
"t$u$v$w$x$y$z$A$B$C$E#D$E$F$G$#$H$I$J$K$L$M$P#N$N$P#M$L$K$J$I$H$#$G$F$E$D$E#C$B$A$z$y$x$w$v$u$t$)@  ",
"O$P$Q$R$S$T$U$V$W$X$Y$Z$`$ %.%+%@%#%$%%%&%*%=%-%-%=%*%&%%%$%#%@%+%.% %`$Z$Y$X$W$V$U$T$S$R$Q$P$O$7@  ",
"  ;%>%,%t#'%)%!%~%{%]%^%/%(%_%:%<%[%}%|%1%2%3%4%4%3%2%1%|%}%[%<%:%_%(%/%^%]%{%~%!%)%'%t#,%>%;%      ",
"  < > 5%>%6%7%8%9%0%a%b%c%d%e%f%g%h%i%j%k%l%m%n%n%o%p%k%j%q%h%g%f%e%d%c%b%a%0%9%8%7%6%>%5%> <       ",
"        . r%t#s%t%u%v%w%x%w%y%z%A%B%C%D%E%F%G%H%H%G%I%J%K%L%B%A%z%y%w%x%w%v%u%t%s%t#r%.             ",
"        > s@M%N%O%P%Q%R%S%T%U%V%W%X%Y%Z%`%6%6% & &6%6%`%Z%Y%X%W%V%U%T%S%R%Q%P%O%N%M%s@>             ",
"        . r%t#.&+&@&#&$&%&&&*&=&-&s%;&)@5#. . ;%;%. . 5#)@;&s%-&=&*&&&%&$&#&@&+&.&t#r%.             ",
"        . r%t#.&t%>&,&'&)&!&#&>&~&{&]&>%7@            7@>%]&{&~&>&#&!&)&'&,&>&t%.&t#r%.             ",
"        . r%t#.&+&^&#&/&%&$&(&^&_&:&<&>%>             > >%<&:&_&^&(&$&%&/&#&^&+&.&t#r%.             ",
"        . r%t#.&[&}&|&1&2&1&3&4&5&6&<&Y+>             > Y+<&6&5&4&3&1&2&1&|&}&[&.&t#r%.             "};
