/* XPM */
static char * trophy_xpm[] = {
"50 45 25 1",
" 	c #2F8136",
".	c #241D1D",
"+	c #420204",
"@	c #FFCF00",
"#	c #FFE43E",
"$	c #FFF781",
"%	c #FF9800",
"&	c #FF7F02",
"*	c #FDF58A",
"=	c #FE9704",
"-	c #318236",
";	c #479032",
">	c #348435",
",	c #308236",
"'	c #489231",
")	c #398734",
"!	c #448F32",
"~	c #3E8A33",
"{	c #368535",
"]	c #388635",
"^	c #499231",
"/	c #3E8A34",
"(	c #469032",
"_	c #328336",
":	c #FFE344",
"           ............................           ",
"          .++++++++++++++++++++++++++++.          ",
"          .+@@##$$$$$$$$####@@@@%%%%%%+.          ",
"          .+@@##$$$$$$$$####@@@@%%%%%%+.          ",
"          .+@@##$$$$$$$$####@@@@%%%%%%+.          ",
"          .+++&&&&&&&&&&&&&&&&&&&&&&+++.          ",
"           ..+@@#$$$$$$$$##@@@@%%%%%+..           ",
"       ......+@@#$$$$$$$$##@@@@%%%%%+......       ",
"      .+++++++@@#$$$$$$$$##@@@@%%%%%+++++++.      ",
"      .+****@+@@#$$$$$$$$##@@@@%%%%%+@****+.      ",
"      .+@+++++@@#$$$$$$$$##@@@@%%%%%+++++@+.      ",
"      .+@+   +@@#$$$$$$$$##@@@@%%%%%+   +@+.      ",
"      .+@+   +@@#$$$$$$$$##@@@@%%%%%+   +@+.      ",
"      .+@+   +@@#$$$$$$$$##@@@@%%%%%+   +@+.      ",
"      .++=++++@@##$$$$$$###@@@@%%%%%++++=++.      ",
"       .++===+@@###########@@@@%%%%%+===++.       ",
"        .+++++@@@#########@@@@%%%%%%+++++.        ",
"         ....+@@@@@@@@@@@@@@@%%%%%%%+....         ",
"            .+%%@@@@@@@@@@@@%%%%%%%%+.            ",
"             .+%%%%%%%%%%%%%%%%%%%%+.             ",
"              .+++%%%%%%%%%%%%%%+++.              ",
"               ...++++++++++++++...               ",
"                  ....+%%%%+....                  ",
"                     .+%%%%+.                     ",
"                     .+##%%+.                     ",
"                     .+##%%+.                     ",
"                     .+##%%+.                     ",
"                     .+##%%+.                     ",
"                     .+##%%+.                     ",
"                     .+##%%+.                     ",
"                     .+##%%+.                     ",
"             -       .+##%%+.                     ",
"             ;>      .+##%%+.                     ",
"           , ')      .+##%%+.                     ",
"           !~>{)>  ...+##%%+...                   ",
"           ]^ /(_ .++++##%%++++.                  ",
"              ~,  .+#####%%%%%+.                  ",
"                  .+#####%%%%%+.                  ",
"             .....++++++++++++++.....             ",
"             .++++@@@:$$##%%%###++++.             ",
"             .+@@@:$$$$$####%%%####+.             ",
"             .+@@@@$$$$$$$####%%%##+.             ",
"             .+@@:$$$$$$$$$$##%%%##+.             ",
"             .++++++++++++++++++++++.             ",
"             ........................             "};
